<?xml version="1.0" encoding="UTF-8" standalone="no"?>
<svg
   xmlns:dc="http://purl.org/dc/elements/1.1/"
   xmlns:cc="http://creativecommons.org/ns#"
   xmlns:rdf="http://www.w3.org/1999/02/22-rdf-syntax-ns#"
   xmlns:svg="http://www.w3.org/2000/svg"
   xmlns="http://www.w3.org/2000/svg"
   xmlns:sodipodi="http://sodipodi.sourceforge.net/DTD/sodipodi-0.dtd"
   xmlns:inkscape="http://www.inkscape.org/namespaces/inkscape"
   id="Layer_1"
   data-name="Layer 1"
   viewBox="0 0 256 256.00001"
   version="1.1"
   sodipodi:docname="icon.svg"
   inkscape:version="0.92.2 (5c3e80d, 2017-08-06)"
   width="256"
   height="256">
  <metadata
     id="metadata1206">
    <rdf:RDF>
      <cc:Work
         rdf:about="">
        <dc:format>image/svg+xml</dc:format>
        <dc:type
           rdf:resource="http://purl.org/dc/dcmitype/StillImage" />
        <dc:title>hori_coloured(border)</dc:title>
      </cc:Work>
    </rdf:RDF>
  </metadata>
  <sodipodi:namedview
     pagecolor="#ffffff"
     bordercolor="#666666"
     borderopacity="1"
     objecttolerance="10"
     gridtolerance="10"
     guidetolerance="10"
     inkscape:pageopacity="1"
     inkscape:pageshadow="2"
     inkscape:window-width="1600"
     inkscape:window-height="821"
     id="namedview1204"
     showgrid="false"
     showguides="true"
     inkscape:guide-bbox="true"
     inkscape:zoom="1.4142136"
     inkscape:cx="167.99255"
     inkscape:cy="123.61258"
     inkscape:window-x="-9"
     inkscape:window-y="-9"
     inkscape:window-maximized="1"
     inkscape:current-layer="layer2"
     units="mm"
     inkscape:pagecheckerboard="false"
     borderlayer="true">
    <sodipodi:guide
       position="97.126562,92.809827"
       orientation="0,1"
       id="guide4907"
       inkscape:locked="false" />
    <sodipodi:guide
       position="67.772757,144.61066"
       orientation="0,1"
       inkscape:locked="false"
       id="guide4909" />
  </sodipodi:namedview>
  <defs
     id="defs1169">
    <style
       id="style1167">.cls-1{fill:#2a3f57;}.cls-2{fill:#293f57;}.cls-3,.cls-4{fill:#feda46;}.cls-3{opacity:0.75;}</style>
  </defs>
  <title
     id="title1171">hori_coloured(border)</title>
  <g
     inkscape:groupmode="layer"
     id="layer1"
     inkscape:label="Layer 1">
    <rect
       style="fill:#4571a0;fill-opacity:1"
       id="rect4515"
       width="329"
       height="339"
       x="-36"
       y="-54" />
  </g>
  <g
     inkscape:groupmode="layer"
     id="layer2"
     inkscape:label="Layer 2">
    <ellipse
       id="_Path_"
       data-name="&lt;Path&gt;"
       class="cls-2"
       cx="78.73317"
       cy="165.80858"
       transform="matrix(0.93654155,-0.35055659,0.33042218,0.94383324,0,0)"
       style="fill:#293f57;stroke-width:1.13875401"
       rx="96.18792"
       ry="98.69175" />
    <path
       id="_Path_2"
       data-name="&lt;Path&gt;"
       class="cls-3"
       d="m 172.004,187.80665 a 4.1654197,4.3071237 0 0 0 1.50044,-3.87873 C 164.71452,111.64466 125.6805,65.296767 124.02329,63.386349 a 4.1542224,4.2955454 0 0 0 -6.93117,1.15783 l -16.32575,38.845161 -37.768717,10.5594 a 4.1542224,4.2955454 0 0 0 -2.161091,6.84277 c 31.352622,40.39665 104.135498,66.63306 107.181168,67.733 a 4.1654197,4.3071237 0 0 0 3.98627,-0.71786 z"
       inkscape:connector-curvature="0"
       style="opacity:0.75;fill:#feda46;stroke-width:1.13862336" />
    <path
       id="_Path_3"
       data-name="&lt;Path&gt;"
       class="cls-4"
       d="m 191.46502,109.80371 a 4.2997881,4.4460632 0 0 0 0.55986,-4.19134 4.2102092,4.3534368 0 0 0 -3.14645,-2.70932 C 118.68215,89.205938 63.355968,113.72875 61.038115,114.7708 a 4.2102092,4.3534368 0 0 0 -1.119737,7.27117 l 31.218253,28.30891 -1.903552,40.99873 a 4.2102092,4.3534368 0 0 0 5.710656,4.28396 C 142.39817,176.8536 189.47189,112.53619 191.46502,109.80371 Z"
       inkscape:connector-curvature="0"
       style="fill:#feda46;stroke-width:1.13862336" />
    <ellipse
       id="_Path_4"
       data-name="&lt;Path&gt;"
       class="cls-2"
       cx="78.73317"
       cy="165.80858"
       transform="matrix(0.93654155,-0.35055659,0.33042218,0.94383324,0,0)"
       style="fill:#293f57;stroke-width:1.13875401"
       rx="17.785095"
       ry="18.248056" />
    <g
       id="_Group_"
       data-name="&lt;Group&gt;"
       transform="matrix(1.1197365,0,0,1.157829,-11.207284,6.652728)">
      <rect
         id="_Rectangle_"
         data-name="&lt;Rectangle&gt;"
         class="cls-4"
         x="43.459999"
         y="111.13"
         width="6.9899998"
         height="37.619999"
         rx="1.46"
         ry="1.46"
         transform="rotate(66.32,46.945064,129.93997)"
         style="fill:#feda46" />
      <rect
         id="_Rectangle_2"
         data-name="&lt;Rectangle&gt;"
         class="cls-4"
         x="52.740002"
         y="132.28999"
         width="6.9899998"
         height="37.619999"
         rx="1.46"
         ry="1.46"
         transform="rotate(66.32,56.231643,151.10519)"
         style="fill:#feda46" />
      <rect
         id="_Rectangle_3"
         data-name="&lt;Rectangle&gt;"
         class="cls-4"
         x="48.099998"
         y="114.46"
         width="6.9899998"
         height="52.119999"
         rx="1.46"
         ry="1.46"
         transform="rotate(66.32,51.588353,140.52258)"
         style="fill:#feda46" />
    </g>
  </g>
</svg>
